<svg width="118" height="44" viewBox="0 0 118 44" fill="none" xmlns="http://www.w3.org/2000/svg">
<path d="M101.935 8.65197V0.998909H80.6794L77.1837 26.5662L73.7246 0.999034H66.0593L66.918 7.82123C66.0327 6.07354 62.8944 0.999034 55.9879 0.999034C55.9424 0.996052 48.3122 0.999034 48.3122 0.999034L48.2828 38.2654L42.6957 0.999034L32.6568 0.993195L26.8769 39.6062L26.8799 0.998785H17.272L13.8083 22.6878L10.4345 0.999034H0.823547V42.9778H8.39201V22.7441L11.8347 42.9773H15.8584L19.2528 22.7441V42.9773H33.8435L34.7289 36.5178H40.6032L41.4856 42.9773L55.8102 42.9861H55.8219V42.9773H55.8308H55.8397V29.3509L57.5958 29.0946L61.2314 42.9861H61.2403H68.632H68.6406L68.6377 42.9773H68.6508H68.6597L63.8888 26.6958C66.3066 24.9041 69.0364 20.3541 68.3099 16.0014V15.9986C68.3186 16.0574 72.8131 43.0041 72.8131 43.0041L81.6252 42.9773L87.6465 4.927V42.9774H101.936V35.4274H95.153V25.8H101.936V18.1351H95.153V8.65197H101.935ZM35.6204 29.861L37.6984 11.9143L39.856 29.861H35.6204ZM57.6204 21.5742C57.038 21.8572 56.4306 21.9987 55.8394 21.9987V8.49581C55.8497 8.49581 55.8616 8.49308 55.8762 8.49308C56.4689 8.4901 60.8882 8.67272 60.8882 15.1735C60.8882 18.5741 59.3852 20.7168 57.6204 21.5742ZM117.185 35.4216V42.9714H103.246V0.993195H110.751V35.4216H117.185Z" fill="white"/>
</svg>
